<?xml version="1.0" encoding="UTF-8"?>
<svg id="Layer_1_copy" xmlns="http://www.w3.org/2000/svg" viewBox="0 0 792 612">
  <defs>
    <style>
      .cls-1 {
        fill: #bababa;
      }

      .cls-1, .cls-2 {
        fill-rule: evenodd;
      }

      .cls-3 {
        fill: #808184;
      }

      .cls-4, .cls-2 {
        fill: #072bde;
      }
    </style>
  </defs>
  <path class="cls-2" d="M552.3,299.51v-19.11h-96.77c-2.98,0-5.57-.72-8.18-2.54-2.24-1.79-4.47-3.96-5.59-6.84-1.49-2.9-2.6-6.13-2.6-9.75,0-3.24,1.11-6.49,2.6-9.36,1.12-2.89,3.36-5.44,5.59-7.23,2.61-1.43,5.2-2.16,8.18-2.16h96.77v-19.11h-96.77c-8.93,0-16.74,3.59-23.06,11.16-6.33,7.23-9.32,16.25-9.32,26.7,0,6.85,1.49,13.35,4.47,19.13,2.98,6.14,6.69,10.44,11.53,14.04,5.21,3.27,10.43,5.06,16.37,5.06h96.77M222.71,242.76c1.49,0,2.98.35,4.1,1.07,1.12.72,1.87,2.17,2.99,3.27.37,1.45.74,3.24.74,5.04,0,2.54-.74,5.06-2.24,6.88-1.49,1.8-3.36,2.52-5.59,2.52h-89.1v-18.78h89.1M117.64,223.59v76.22h16.03v-19.14h89.13c6.31,0,12.29-2.88,17.14-8.33,4.46-5.41,7.07-12.26,7.07-20.2,0-5.07-1.12-10.13-3.36-14.46-2.22-4.32-5.21-7.94-8.57-10.48-3.74-2.52-8.22-3.6-12.29-3.6h-105.15M340.89,280.75l41.01,40.09h20.86l-40.99-40.09h20.89c6.69,0,12.66-2.89,17.14-8.3,4.83-5.44,7.07-12.31,7.07-20.23,0-5.07-1.12-10.13-2.99-14.47-2.21-4.32-5.2-7.93-8.93-10.47-3.74-2.52-7.84-3.6-12.29-3.6h-105.16v76.21h16.4v-19.14h46.99M382.57,242.76c1.87,0,2.99.35,4.11,1.07,1.49.72,2.24,2.17,2.99,3.27.74,1.45,1.12,3.24,1.12,5.04,0,2.54-.74,5.06-2.24,6.88-1.86,1.8-3.73,2.52-5.97,2.52h-88.72v-18.78h88.72M376.07,149.79c120.78,7.24,213.99,56.36,213.99,115.61s-96.92,110.54-221.08,115.97c10.05.72,20.51,1.08,30.94,1.08,134.96,0,244.59-52.38,244.59-116.67s-109.63-116.7-244.59-116.7c-8.19,0-16.03.38-23.85.72h0"/>
  <path class="cls-1" d="M414.15,150.05c128.25,3.62,229.66,54.53,229.66,116.32s-101.41,112.7-229.29,116.31c4.85.36,9.68.36,14.91.36,135.34,0,244.94-52.38,244.94-116.67s-109.6-116.7-244.94-116.7c-5.23,0-10.05,0-15.28.38h0"/>
  <g>
    <path class="cls-4" d="M123.08,406.51h9.68c5.24,0,9.01.48,11.33,1.45s4.14,2.53,5.48,4.69c1.34,2.16,2,4.75,2,7.77,0,3.35-.88,6.13-2.62,8.35-1.75,2.22-4.12,3.76-7.12,4.63-1.76.5-4.97.75-9.62.75v20.31h-9.13v-47.95ZM132.21,425.25h2.9c2.28,0,3.87-.16,4.76-.49.89-.33,1.59-.87,2.1-1.62.51-.75.77-1.66.77-2.73,0-1.85-.72-3.21-2.15-4.06-1.04-.63-2.98-.95-5.8-.95h-2.58v9.84Z"/>
    <path class="cls-4" d="M161.12,406.51h9.67c5.3,0,9.07.47,11.31,1.42,2.25.95,4.05,2.52,5.42,4.71,1.37,2.2,2.05,4.79,2.05,7.79,0,3.15-.76,5.79-2.27,7.91-1.51,2.12-3.79,3.72-6.83,4.81l11.36,21.32h-9.98l-10.78-20.31h-.83v20.31h-9.13v-47.95ZM170.25,425.25h2.86c2.9,0,4.9-.38,6-1.14,1.09-.76,1.64-2.03,1.64-3.79,0-1.05-.27-1.96-.81-2.73-.54-.77-1.27-1.33-2.18-1.67-.91-.34-2.58-.51-5-.51h-2.5v9.84Z"/>
    <path class="cls-4" d="M243.3,414.94l-6.38,6.08c-4.34-4.59-9.23-6.88-14.66-6.88-4.58,0-8.44,1.57-11.58,4.7-3.14,3.13-4.71,6.99-4.71,11.58,0,3.2.69,6.04,2.08,8.52,1.39,2.48,3.35,4.43,5.9,5.84s5.36,2.12,8.47,2.12c2.65,0,5.07-.5,7.26-1.48,2.19-.99,4.6-2.79,7.23-5.4l6.19,6.46c-3.54,3.46-6.89,5.85-10.04,7.19-3.15,1.34-6.75,2-10.79,2-7.45,0-13.56-2.36-18.3-7.09-4.75-4.73-7.12-10.78-7.12-18.17,0-4.78,1.08-9.03,3.24-12.75,2.16-3.72,5.26-6.7,9.29-8.96,4.03-2.26,8.37-3.39,13.02-3.39,3.96,0,7.76.84,11.43,2.51,3.66,1.67,6.82,4.05,9.47,7.13Z"/>
    <path class="cls-4" d="M273.92,405.3c6.78,0,12.62,2.46,17.5,7.37,4.88,4.91,7.32,10.9,7.32,17.96s-2.41,12.92-7.23,17.77c-4.82,4.85-10.66,7.27-17.53,7.27s-13.18-2.49-17.94-7.46-7.14-10.89-7.14-17.73c0-4.58,1.11-8.8,3.33-12.65s5.27-6.89,9.15-9.14,8.06-3.37,12.54-3.37ZM273.83,414.24c-4.44,0-8.17,1.54-11.19,4.63-3.02,3.09-4.54,7.01-4.54,11.77,0,5.3,1.9,9.5,5.71,12.58,2.96,2.41,6.35,3.62,10.18,3.62,4.33,0,8.02-1.56,11.06-4.69,3.05-3.13,4.57-6.99,4.57-11.57s-1.53-8.43-4.6-11.59c-3.07-3.16-6.8-4.74-11.19-4.74Z"/>
    <path class="cls-4" d="M312,406.51h8.89l11.12,33.45,11.22-33.45h8.89l8.04,47.95h-8.83l-5.14-30.28-10.19,30.28h-8.04l-10.1-30.28-5.26,30.28h-8.9l8.3-47.95Z"/>
    <path class="cls-4" d="M367.4,406.51h9.68c5.24,0,9.01.48,11.33,1.45s4.14,2.53,5.48,4.69c1.34,2.16,2,4.75,2,7.77,0,3.35-.88,6.13-2.62,8.35s-4.12,3.76-7.12,4.63c-1.76.5-4.97.75-9.62.75v20.31h-9.13v-47.95ZM376.52,425.25h2.9c2.28,0,3.87-.16,4.76-.49.89-.33,1.59-.87,2.1-1.62s.77-1.66.77-2.73c0-1.85-.72-3.21-2.15-4.06-1.04-.63-2.98-.95-5.8-.95h-2.58v9.84Z"/>
    <path class="cls-4" d="M404.49,406.51h9.16v31.01c0,2.67.23,4.56.7,5.67.47,1.11,1.24,1.99,2.31,2.65,1.08.66,2.37.99,3.9.99,1.61,0,2.99-.37,4.16-1.11,1.16-.74,1.97-1.68,2.41-2.82.45-1.14.67-3.32.67-6.53v-29.87h9.16v28.59c0,4.83-.27,8.17-.81,10.04-.54,1.87-1.58,3.67-3.11,5.41-1.53,1.74-3.3,3.03-5.3,3.86-2,.84-4.33,1.25-6.98,1.25-3.48,0-6.5-.8-9.08-2.4-2.58-1.6-4.42-3.6-5.53-6s-1.66-6.46-1.66-12.18v-28.59Z"/>
    <path class="cls-4" d="M442.83,406.51h26.5v9h-8.74v38.95h-9.26v-38.95h-8.51v-9Z"/>
    <path class="cls-4" d="M475.62,406.51h26.18v8.93h-17.11v8.67h17.11v8.77h-17.11v12.62h17.11v8.96h-26.18v-47.95Z"/>
    <path class="cls-4" d="M510.92,406.51h9.67c5.3,0,9.07.47,11.31,1.42,2.25.95,4.05,2.52,5.42,4.71,1.37,2.2,2.05,4.79,2.05,7.79,0,3.15-.76,5.79-2.27,7.91-1.51,2.12-3.79,3.72-6.83,4.81l11.36,21.32h-9.98l-10.78-20.31h-.84v20.31h-9.13v-47.95ZM520.05,425.25h2.86c2.9,0,4.9-.38,6-1.14,1.09-.76,1.64-2.03,1.64-3.79,0-1.05-.27-1.96-.81-2.73-.54-.77-1.27-1.33-2.18-1.67-.91-.34-2.58-.51-5-.51h-2.5v9.84Z"/>
    <path class="cls-4" d="M552.91,445.17c1.41,0,2.62.49,3.62,1.48,1,.99,1.5,2.19,1.5,3.6s-.5,2.62-1.5,3.62c-1,1-2.21,1.5-3.62,1.5s-2.62-.5-3.62-1.5c-1-1-1.5-2.21-1.5-3.62s.5-2.61,1.5-3.6c1-.99,2.21-1.48,3.62-1.48Z"/>
    <path class="cls-4" d="M567.74,406.51h8.76l20.52,31.55v-31.55h9.13v47.95h-8.78l-20.49-31.46v31.46h-9.13v-47.95Z"/>
    <path class="cls-4" d="M617.12,406.51h26.18v8.93h-17.11v8.67h17.11v8.77h-17.11v12.62h17.11v8.96h-26.18v-47.95Z"/>
    <path class="cls-4" d="M647.08,406.51h26.5v9h-8.74v38.95h-9.26v-38.95h-8.51v-9Z"/>
  </g>
  <g>
    <path class="cls-3" d="M136.06,336.5l-3.64,3.22c-1.5-1.93-2.89-2.9-4.18-2.9-.64,0-1.17.19-1.59.57-.42.38-.63.84-.63,1.37,0,.5.19,1.04.58,1.65.39.6,1.56,1.94,3.51,4,1.04,1.1,1.72,1.88,2.05,2.34.78,1.06,1.35,2.06,1.69,2.98s.52,1.86.52,2.82c0,2.14-.76,3.93-2.28,5.38-1.52,1.45-3.47,2.17-5.85,2.17-3.62,0-6.57-1.72-8.86-5.16l3.84-3.1c1.55,2.36,3.22,3.53,5.02,3.53.86,0,1.58-.28,2.16-.83.59-.56.88-1.23.88-2.01,0-.62-.18-1.24-.53-1.88-.36-.64-1.37-1.85-3.05-3.62-1.78-1.87-2.94-3.29-3.5-4.24-.75-1.29-1.12-2.56-1.12-3.8,0-1.64.54-3.12,1.61-4.42,1.35-1.63,3.18-2.45,5.47-2.45,3.15,0,5.79,1.46,7.92,4.38Z"/>
    <path class="cls-3" d="M141.62,332.79h4.89l-3.73,26.64h-4.8l3.64-26.64Z"/>
    <path class="cls-3" d="M152.19,332.79h4.37l9.61,18.11,2.48-18.11h4.88l-3.62,26.64h-4.27l-9.74-18.31-2.5,18.31h-4.8l3.6-26.64Z"/>
    <path class="cls-3" d="M202.35,336.24l-3.64,3.38c-.79-.91-1.75-1.6-2.88-2.09-1.13-.49-2.37-.73-3.69-.73-1.86,0-3.64.48-5.34,1.43s-3.03,2.21-3.98,3.78c-.95,1.57-1.42,3.24-1.42,5.01,0,2.41.83,4.42,2.5,6.02,1.67,1.6,3.8,2.4,6.41,2.4,2.79,0,5.2-.81,7.25-2.43l2.95,3.89c-3.03,2.14-6.54,3.21-10.52,3.21-2.8,0-5.18-.53-7.15-1.59s-3.54-2.62-4.73-4.68c-1.19-2.06-1.78-4.29-1.78-6.69,0-2.57.7-5.04,2.11-7.4,1.41-2.36,3.31-4.22,5.71-5.58,2.4-1.36,5.02-2.04,7.86-2.04,3.98,0,7.43,1.37,10.34,4.12Z"/>
    <path class="cls-3" d="M208.26,332.79h14.33l-.61,4.73h-9.3l-.76,5.51h9.35l-.61,4.69h-9.39l-.98,7.06h9.45l-.6,4.66h-14.51l3.64-26.64Z"/>
    <path class="cls-3" d="M240.81,332.79h7.9l-3.62,26.64h-4.88l3-21.99h-3.98l1.58-4.66Z"/>
    <path class="cls-3" d="M262.87,360.1l-3.82-2.55,6.41-8.95c-.64.16-1.22.24-1.74.24-2.04,0-3.79-.75-5.23-2.26s-2.17-3.38-2.17-5.62c0-2.52.85-4.63,2.55-6.31s3.88-2.53,6.52-2.53c2.4,0,4.4.8,6,2.4,1.59,1.6,2.39,3.56,2.39,5.88,0,.93-.12,1.83-.36,2.7-.36,1.26-.86,2.45-1.49,3.59-1.12,2.05-2.28,3.92-3.48,5.6l-5.58,7.82ZM264.97,344.58c1.14,0,2.11-.4,2.92-1.2.81-.8,1.21-1.75,1.21-2.86s-.37-1.96-1.11-2.68-1.66-1.09-2.74-1.09c-1.15,0-2.11.4-2.89,1.19s-1.17,1.77-1.17,2.92c0,1.05.36,1.93,1.08,2.64.72.71,1.62,1.07,2.71,1.07Z"/>
    <path class="cls-3" d="M279.19,332.79h16.63l-.29,3.26-13.46,24.05-4.08-2.25,11.59-20.45h-10.97l.58-4.62Z"/>
    <path class="cls-3" d="M304.26,339.22h-4.6c.26-2.17,1.12-3.9,2.55-5.18,1.44-1.28,3.19-1.92,5.27-1.92,1.29,0,2.46.29,3.5.88,1.04.59,1.87,1.42,2.49,2.49.62,1.07.93,2.19.93,3.33s-.34,2.29-1.02,3.39c-.68,1.1-1.72,2.07-3.11,2.92,2.4,1.47,3.6,3.53,3.6,6.16,0,2.43-.89,4.5-2.66,6.23s-3.94,2.59-6.48,2.59c-2.32,0-4.24-.8-5.75-2.41-1.52-1.61-2.27-3.74-2.27-6.39h4.71c.13,1.35.45,2.34.96,2.95.7.83,1.62,1.25,2.75,1.25,1.2,0,2.14-.45,2.84-1.34s1.05-1.96,1.05-3.19c0-.7-.19-1.36-.57-1.96-.38-.61-.88-1.08-1.5-1.4-.62-.32-1.57-.52-2.85-.59l.6-4.17c1.53,0,2.7-.35,3.5-1.04.8-.69,1.2-1.57,1.2-2.64,0-.72-.23-1.32-.68-1.77-.45-.46-1.02-.69-1.71-.69s-1.3.22-1.8.65-.82,1.05-.95,1.85Z"/>
  </g>
</svg>